<svg xmlns="http://www.w3.org/2000/svg" xmlns:xlink="http://www.w3.org/1999/xlink" viewBox="0,0,256,256" width="25px" height="25px"><g fill="#ffffff" fill-rule="nonzero" stroke="none" stroke-width="1" stroke-linecap="butt" stroke-linejoin="miter" stroke-miterlimit="10" stroke-dasharray="" stroke-dashoffset="0" font-family="none" font-weight="none" font-size="none" text-anchor="none" style="mix-blend-mode: normal"><g transform="scale(5.12,5.12)"><path d="M30.93,36.76c-0.09,0.15 -0.26,0.24 -0.43,0.24h-6.9l-5.66,-10.64c-0.095,-0.184 -0.304,-0.265 -0.5,-0.244c-0.156,0.017 -0.304,0.098 -0.38,0.244l-5.66,10.64h-6.9c-0.17,0 -0.34,-0.09 -0.43,-0.24c-0.09,-0.15 -0.09,-0.34 -0.01,-0.49l13,-25c0.084,-0.163 0.257,-0.245 0.432,-0.247c0.18,-0.002 0.361,0.08 0.448,0.247l13,25c0.08,0.15 0.08,0.34 -0.01,0.49zM45.93,36.76c-0.09,0.15 -0.26,0.24 -0.43,0.24h-13.6c0.15,-0.39 0.12,-0.82 -0.07,-1.19l-12.41,-23.86c1.21,0.51 3.09,1.05 5.58,1.05c4.64,0 7.17,-1.88 7.2,-1.9c0.11,-0.09 0.26,-0.12 0.41,-0.09c0.14,0.03 0.27,0.13 0.33,0.26l13,25c0.08,0.15 0.08,0.34 -0.01,0.49z"></path></g></g></svg>